<?xml version="1.0" encoding="UTF-8"?>
<svg id="Layer_1" data-name="Layer 1" xmlns="http://www.w3.org/2000/svg" viewBox="0 0 989.11 540">
  <defs>
    <style>
      .cls-1 {
        fill: #fff;
      }
    </style>
  </defs>
  <g>
    <path class="cls-1" d="m302.76,457.3c.61,0,1.11.2,1.51.61s.55.91.45,1.51c-.1.61-.45,1.01-1.06,1.21-1.21.2-2.22.15-3.03-.15-.81-.3-1.51-1.01-2.12-2.12-.61-1.11-1.01-1.97-1.21-2.57-.2-.61-.51-1.51-.91-2.73-2.02-6.86-3.94-13.93-5.75-21.19-3.43-13.12-6.56-27.25-9.39-42.39-8.48-44.41-14.23-89.82-17.26-136.25-22.21,7.07-44.1,15.24-65.7,24.52-18.57,53.08-32.5,92.85-41.78,119.29.8,1.61,1.01,2.92.61,3.94-.2.4-.71.8-1.51,1.21-.81.4-1.32.61-1.51.61-.41.61-1.01.7-1.82.3-.81-.41-1.11-1.01-.91-1.82,14.33-40.77,22.81-64.9,25.43-72.36,8.88-25.43,14.63-41.88,17.26-49.35-12.52,5.45-24.42,11-35.73,16.65-.61.4-1.16.4-1.67,0-.51-.41-.76-.86-.76-1.36s.3-.96.91-1.36c12.11-6.06,25.03-12.11,38.75-18.17,3.03-8.27,7.47-20.84,13.32-37.7,5.85-16.85,10.19-29.42,13.02-37.69.8-2.02,2.82-7.67,6.06-16.96,3.23-9.28,5.35-15.39,6.36-18.32,1.01-2.92,2.98-8.33,5.9-16.2,2.92-7.87,5.2-13.93,6.81-18.17,1.61-4.24,3.73-9.64,6.36-16.2,2.62-6.56,5.19-12.51,7.72-17.86,2.52-5.35,5.09-10.75,7.72-16.2.4-.8,1.01-1.01,1.82-.61.8.41,1.21,1.11,1.21,2.12-3.63,27.25-5.86,55.41-6.66,84.47-.61,26.85,0,54.5,1.82,82.96,5.25-1.82,9.79-3.23,13.62-4.24.61-.2,1.11-.1,1.51.3.4.41.55.91.45,1.51-.1.61-.45,1.01-1.06,1.21-4.24,1.21-9.08,2.72-14.53,4.54,1.41,19.78,3.33,40.07,5.75,60.86,3.23,27.05,6.96,51.77,11.2,74.18,2.22,12.31,4.64,23.92,7.27,34.82,1.01,4.04,1.71,6.96,2.12,8.78.4,1.82.96,4.09,1.67,6.81.71,2.72,1.41,5.15,2.12,7.27.71,2.12,1.36,4.19,1.97,6.21.61,2.02,1.21,3.58,1.82,4.69.61,1.11,1.21,1.56,1.82,1.36Zm-39.66-221.32c-2.62-50.87-1.21-99.31,4.24-145.33-7.67,16.35-15.64,35.83-23.92,58.43-2.83,7.87-17.46,49.46-43.9,124.74,21.19-9.08,42.59-17.05,64.19-23.92-.41-6.46-.61-11.1-.61-13.93Z"/>
    <path class="cls-1" d="m416.3,254.45c.4-.4.86-.5,1.36-.3.5.2.86.56,1.06,1.06.2.51.1,1.06-.3,1.67-4.84,5.25-11.2,10.9-19.07,16.96-.41.2-1.21.76-2.42,1.67-1.21.91-2.12,1.57-2.73,1.97-.61.41-1.47,1.06-2.57,1.97-1.11.91-2.07,1.57-2.88,1.97-.81.41-1.77.86-2.88,1.36-1.11.51-2.12.91-3.03,1.21s-1.87.45-2.88.45c-6.26.81-11-6.25-14.23-21.19-.2-2.22-.41-3.43-.61-3.63-1.21-2.22-2.83-1.92-4.84.91-1.21,1.62-2.42,4.14-3.63,7.57-2.42,5.86-4.54,9.99-6.36,12.41-.41.41-.96.51-1.67.3-.71-.2-1.06-.61-1.06-1.21-2.02-12.72-3.13-19.38-3.33-19.98-.61-4.84-1.31-7.57-2.12-8.17-2.02-2.02-5.05-.1-9.08,5.75-5.05,7.67-7.47,19.38-7.27,35.12,0,1.01-.51,1.56-1.51,1.67-1.01.1-1.62-.25-1.82-1.06-.2-2.22-.41-4.49-.61-6.81-.2-2.32-.36-4.69-.45-7.12-.1-2.42-.15-4.59-.15-6.51s.05-4.29.15-7.12c.1-2.82.2-5.04.3-6.66.1-1.61.25-3.94.45-6.96.2-3.03.4-5.25.61-6.66,0-1.01.45-1.56,1.36-1.67.91-.1,1.46.26,1.67,1.06.4,1.01.61,2.02.61,3.03,0,.41-.2.81-.61,1.21-.81,10.09-1.21,16.96-1.21,20.59,2.02-8.07,5.45-14.43,10.29-19.07,2.82-2.82,5.15-3.94,6.96-3.33,2.02.41,3.53,2.42,4.54,6.05,1.01,3.23,2.22,10.6,3.63,22.1.8-1.41,1.76-3.53,2.88-6.36,1.11-2.82,1.76-4.54,1.97-5.15,2.62-5.85,5.35-9.08,8.17-9.69,1.21-.2,2.27.15,3.18,1.06.91.91,1.46,1.77,1.67,2.57.2.81.5,1.92.91,3.33,1.61,9.08,3.94,15.24,6.96,18.47,2.02,2.22,5.15,2.22,9.39,0,3.03-1.61,6.66-3.94,10.9-6.96,8.07-6.06,14.84-12.01,20.29-17.86Z"/>
    <path class="cls-1" d="m421.45,235.37c-.41.41-1.01.96-1.82,1.67-.81.71-1.41,1.16-1.82,1.36l-.91.91c-.41.41-.81.61-1.21.61-.2.41-.4.61-.61.61,0,.41-.1.71-.3.91-.4.61-.91.91-1.51.91-1.01-.2-1.61-.71-1.82-1.51,0-.8.3-1.51.91-2.12-.4-.8-.3-1.41.3-1.82,2.02-2.01,4.44-3.33,7.27-3.94.61-.2,1.16.05,1.67.76.5.71.45,1.26-.15,1.67Zm187.11-77.81c.61,0,1.01.26,1.21.76.2.51.2,1.06,0,1.66-.2.61-.71.91-1.51.91-14.13.41-28.16,1.51-42.08,3.33-24.02,3.03-47.84,7.98-71.45,14.84-.81,3.23-1.51,6.26-2.12,9.08-1.82,6.26-3.63,12.31-5.45,18.17-3.63,39.56-3.74,75.39-.3,107.48,1.41,11.91,3.33,23.01,5.75,33.3,3.63,13.93,7.46,23.72,11.5,29.37,2.22,2.82,4.54,4.59,6.96,5.3,2.42.71,4.94-.15,7.57-2.57,1.41-1.62,3.83-5.65,7.27-12.11,5.25-9.69,9.89-19.88,13.93-30.58.2-.61.61-.96,1.21-1.06.61-.1,1.11.05,1.51.45.4.4.5.91.3,1.51-4.65,12.51-10.1,24.22-16.35,35.12-1.01,1.82-1.92,3.38-2.73,4.69-.81,1.31-1.92,2.72-3.33,4.24-1.42,1.51-2.78,2.57-4.09,3.18-1.31.61-2.88.86-4.69.76-1.82-.1-3.63-.86-5.45-2.27-5.45-4.04-10.19-12.82-14.23-26.34-3.23-10.9-5.75-22.81-7.57-35.73-2.42-19.38-3.33-43.09-2.73-71.15.2-10.29.71-20.89,1.51-31.79-8.48,23.62-18.77,43.2-30.88,58.74-6.46,8.48-12.21,13.93-17.26,16.35-2.63,1.21-5.15,1.86-7.57,1.97-2.42.1-4.54-.61-6.36-2.12-1.82-1.51-3.03-3.79-3.63-6.81-.2-1.41-.41-7.16-.61-17.26v-21.8c0-.8.25-1.31.76-1.51.5-.2,1.01-.2,1.51,0,.5.2.76.71.76,1.51l.3,22.4c0,.61-.05,2.53-.15,5.75-.1,3.23-.05,5.86.15,7.87.2,2.02.71,3.84,1.51,5.45,1.01,2.02,2.62,3.13,4.84,3.33,2.22.2,4.29-.2,6.21-1.21,1.92-1.01,3.68-2.12,5.3-3.33,5.65-4.44,11.51-11.4,17.56-20.89,7.27-10.9,13.82-23.62,19.68-38.15,3.23-7.46,6.15-15.24,8.78-23.31.61-7.87,1.41-15.74,2.42-23.62-22,6.86-43.3,15.34-63.88,25.43-.61.2-1.16.15-1.67-.15-.51-.3-.76-.76-.76-1.36s.3-1.01.91-1.21c12.72-6.25,25.63-11.91,38.75-16.96,8.88-3.23,17.96-6.25,27.25-9.08v-1.21c0-.4.05-.76.15-1.06.1-.3.15-.61.15-.91v-1.06c1.82-12.51,3.73-24.62,5.75-36.33,2.62-13.52,5.95-24.12,9.99-31.79.4-.8,1.01-1.01,1.82-.61.8,0,1.21.51,1.21,1.51-1.82,24.02-5.35,46.93-10.6,68.73,36.73-10.49,74.38-16.45,112.93-17.86Zm-119.59,31.49c.8-2.82,1.61-5.85,2.42-9.08-.2.2-.46.35-.76.45-.3.1-.56.15-.76.15-.2,2.62-.51,5.45-.91,8.48Zm3.33-12.72c4.44-18.77,7.67-38.75,9.69-59.95-2.02,6.06-4.04,14.43-6.06,25.13-2.22,11.71-4.04,23.52-5.45,35.42.61-.2,1.21-.4,1.82-.61Z"/>
  </g>
  <g>
    <path class="cls-1" d="m302.76,457.3c.61,0,1.11.2,1.51.61s.55.91.45,1.51c-.1.61-.45,1.01-1.06,1.21-1.21.2-2.22.15-3.03-.15-.81-.3-1.51-1.01-2.12-2.12-.61-1.11-1.01-1.97-1.21-2.57-.2-.61-.51-1.51-.91-2.73-2.02-6.86-3.94-13.93-5.75-21.19-3.43-13.12-6.56-27.25-9.39-42.39-8.48-44.41-14.23-89.82-17.26-136.25-22.21,7.07-44.1,15.24-65.7,24.52-18.57,53.08-32.5,92.85-41.78,119.29.8,1.61,1.01,2.92.61,3.94-.2.4-.71.8-1.51,1.21-.81.4-1.32.61-1.51.61-.41.61-1.01.7-1.82.3-.81-.41-1.11-1.01-.91-1.82,14.33-40.77,22.81-64.9,25.43-72.36,8.88-25.43,14.63-41.88,17.26-49.35-12.52,5.45-24.42,11-35.73,16.65-.61.4-1.16.4-1.67,0-.51-.41-.76-.86-.76-1.36s.3-.96.91-1.36c12.11-6.06,25.03-12.11,38.75-18.17,3.03-8.27,7.47-20.84,13.32-37.7,5.85-16.85,10.19-29.42,13.02-37.69.8-2.02,2.82-7.67,6.06-16.96,3.23-9.28,5.35-15.39,6.36-18.32,1.01-2.92,2.98-8.33,5.9-16.2,2.92-7.87,5.2-13.93,6.81-18.17,1.61-4.24,3.73-9.64,6.36-16.2,2.62-6.56,5.19-12.51,7.72-17.86,2.52-5.35,5.09-10.75,7.72-16.2.4-.8,1.01-1.01,1.82-.61.8.41,1.21,1.11,1.21,2.12-3.63,27.25-5.86,55.41-6.66,84.47-.61,26.85,0,54.5,1.82,82.96,5.25-1.82,9.79-3.23,13.62-4.24.61-.2,1.11-.1,1.51.3.4.41.55.91.45,1.51-.1.61-.45,1.01-1.06,1.21-4.24,1.21-9.08,2.72-14.53,4.54,1.41,19.78,3.33,40.07,5.75,60.86,3.23,27.05,6.96,51.77,11.2,74.18,2.22,12.31,4.64,23.92,7.27,34.82,1.01,4.04,1.71,6.96,2.12,8.78.4,1.82.96,4.09,1.67,6.81.71,2.72,1.41,5.15,2.12,7.27.71,2.12,1.36,4.19,1.97,6.21.61,2.02,1.21,3.58,1.82,4.69.61,1.11,1.21,1.56,1.82,1.36Zm-39.66-221.32c-2.62-50.87-1.21-99.31,4.24-145.33-7.67,16.35-15.64,35.83-23.92,58.43-2.83,7.87-17.46,49.46-43.9,124.74,21.19-9.08,42.59-17.05,64.19-23.92-.41-6.46-.61-11.1-.61-13.93Z"/>
    <path class="cls-1" d="m416.3,254.45c.4-.4.86-.5,1.36-.3.5.2.86.56,1.06,1.06.2.51.1,1.06-.3,1.67-4.84,5.25-11.2,10.9-19.07,16.96-.41.2-1.21.76-2.42,1.67-1.21.91-2.12,1.57-2.73,1.97-.61.41-1.47,1.06-2.57,1.97-1.11.91-2.07,1.57-2.88,1.97-.81.41-1.77.86-2.88,1.36-1.11.51-2.12.91-3.03,1.21s-1.87.45-2.88.45c-6.26.81-11-6.25-14.23-21.19-.2-2.22-.41-3.43-.61-3.63-1.21-2.22-2.83-1.92-4.84.91-1.21,1.62-2.42,4.14-3.63,7.57-2.42,5.86-4.54,9.99-6.36,12.41-.41.41-.96.51-1.67.3-.71-.2-1.06-.61-1.06-1.21-2.02-12.72-3.13-19.38-3.33-19.98-.61-4.84-1.31-7.57-2.12-8.17-2.02-2.02-5.05-.1-9.08,5.75-5.05,7.67-7.47,19.38-7.27,35.12,0,1.01-.51,1.56-1.51,1.67-1.01.1-1.62-.25-1.82-1.06-.2-2.22-.41-4.49-.61-6.81-.2-2.32-.36-4.69-.45-7.12-.1-2.42-.15-4.59-.15-6.51s.05-4.29.15-7.12c.1-2.82.2-5.04.3-6.66.1-1.61.25-3.94.45-6.96.2-3.03.4-5.25.61-6.66,0-1.01.45-1.56,1.36-1.67.91-.1,1.46.26,1.67,1.06.4,1.01.61,2.02.61,3.03,0,.41-.2.81-.61,1.21-.81,10.09-1.21,16.96-1.21,20.59,2.02-8.07,5.45-14.43,10.29-19.07,2.82-2.82,5.15-3.94,6.96-3.33,2.02.41,3.53,2.42,4.54,6.05,1.01,3.23,2.22,10.6,3.63,22.1.8-1.41,1.76-3.53,2.88-6.36,1.11-2.82,1.76-4.54,1.97-5.15,2.62-5.85,5.35-9.08,8.17-9.69,1.21-.2,2.27.15,3.18,1.06.91.91,1.46,1.77,1.67,2.57.2.81.5,1.92.91,3.33,1.61,9.08,3.94,15.24,6.96,18.47,2.02,2.22,5.15,2.22,9.39,0,3.03-1.61,6.66-3.94,10.9-6.96,8.07-6.06,14.84-12.01,20.29-17.86Z"/>
    <path class="cls-1" d="m421.45,235.37c-.41.41-1.01.96-1.82,1.67-.81.71-1.41,1.16-1.82,1.36l-.91.91c-.41.41-.81.61-1.21.61-.2.41-.4.61-.61.61,0,.41-.1.71-.3.91-.4.61-.91.91-1.51.91-1.01-.2-1.61-.71-1.82-1.51,0-.8.3-1.51.91-2.12-.4-.8-.3-1.41.3-1.82,2.02-2.01,4.44-3.33,7.27-3.94.61-.2,1.16.05,1.67.76.5.71.45,1.26-.15,1.67Zm187.11-77.81c.61,0,1.01.26,1.21.76.2.51.2,1.06,0,1.66-.2.61-.71.91-1.51.91-14.13.41-28.16,1.51-42.08,3.33-24.02,3.03-47.84,7.98-71.45,14.84-.81,3.23-1.51,6.26-2.12,9.08-1.82,6.26-3.63,12.31-5.45,18.17-3.63,39.56-3.74,75.39-.3,107.48,1.41,11.91,3.33,23.01,5.75,33.3,3.63,13.93,7.46,23.72,11.5,29.37,2.22,2.82,4.54,4.59,6.96,5.3,2.42.71,4.94-.15,7.57-2.57,1.41-1.62,3.83-5.65,7.27-12.11,5.25-9.69,9.89-19.88,13.93-30.58.2-.61.61-.96,1.21-1.06.61-.1,1.11.05,1.51.45.4.4.5.91.3,1.51-4.65,12.51-10.1,24.22-16.35,35.12-1.01,1.82-1.92,3.38-2.73,4.69-.81,1.31-1.92,2.72-3.33,4.24-1.42,1.51-2.78,2.57-4.09,3.18-1.31.61-2.88.86-4.69.76-1.82-.1-3.63-.86-5.45-2.27-5.45-4.04-10.19-12.82-14.23-26.34-3.23-10.9-5.75-22.81-7.57-35.73-2.42-19.38-3.33-43.09-2.73-71.15.2-10.29.71-20.89,1.51-31.79-8.48,23.62-18.77,43.2-30.88,58.74-6.46,8.48-12.21,13.93-17.26,16.35-2.63,1.21-5.15,1.86-7.57,1.97-2.42.1-4.54-.61-6.36-2.12-1.82-1.51-3.03-3.79-3.63-6.81-.2-1.41-.41-7.16-.61-17.26v-21.8c0-.8.25-1.31.76-1.51.5-.2,1.01-.2,1.51,0,.5.2.76.71.76,1.51l.3,22.4c0,.61-.05,2.53-.15,5.75-.1,3.23-.05,5.86.15,7.87.2,2.02.71,3.84,1.51,5.45,1.01,2.02,2.62,3.13,4.84,3.33,2.22.2,4.29-.2,6.21-1.21,1.92-1.01,3.68-2.12,5.3-3.33,5.65-4.44,11.51-11.4,17.56-20.89,7.27-10.9,13.82-23.62,19.68-38.15,3.23-7.46,6.15-15.24,8.78-23.31.61-7.87,1.41-15.74,2.42-23.62-22,6.86-43.3,15.34-63.88,25.43-.61.2-1.16.15-1.67-.15-.51-.3-.76-.76-.76-1.36s.3-1.01.91-1.21c12.72-6.25,25.63-11.91,38.75-16.96,8.88-3.23,17.96-6.25,27.25-9.08v-1.21c0-.4.05-.76.15-1.06.1-.3.15-.61.15-.91v-1.06c1.82-12.51,3.73-24.62,5.75-36.33,2.62-13.52,5.95-24.12,9.99-31.79.4-.8,1.01-1.01,1.82-.61.8,0,1.21.51,1.21,1.51-1.82,24.02-5.35,46.93-10.6,68.73,36.73-10.49,74.38-16.45,112.93-17.86Zm-119.59,31.49c.8-2.82,1.61-5.85,2.42-9.08-.2.2-.46.35-.76.45-.3.1-.56.15-.76.15-.2,2.62-.51,5.45-.91,8.48Zm3.33-12.72c4.44-18.77,7.67-38.75,9.69-59.95-2.02,6.06-4.04,14.43-6.06,25.13-2.22,11.71-4.04,23.52-5.45,35.42.61-.2,1.21-.4,1.82-.61Z"/>
  </g>
  <g>
    <path class="cls-1" d="m302.76,457.3c.61,0,1.11.2,1.51.61s.55.91.45,1.51c-.1.61-.45,1.01-1.06,1.21-1.21.2-2.22.15-3.03-.15-.81-.3-1.51-1.01-2.12-2.12-.61-1.11-1.01-1.97-1.21-2.57-.2-.61-.51-1.51-.91-2.73-2.02-6.86-3.94-13.93-5.75-21.19-3.43-13.12-6.56-27.25-9.39-42.39-8.48-44.41-14.23-89.82-17.26-136.25-22.21,7.07-44.1,15.24-65.7,24.52-18.57,53.08-32.5,92.85-41.78,119.29.8,1.61,1.01,2.92.61,3.94-.2.4-.71.8-1.51,1.21-.81.4-1.32.61-1.51.61-.41.61-1.01.7-1.82.3-.81-.41-1.11-1.01-.91-1.82,14.33-40.77,22.81-64.9,25.43-72.36,8.88-25.43,14.63-41.88,17.26-49.35-12.52,5.45-24.42,11-35.73,16.65-.61.4-1.16.4-1.67,0-.51-.41-.76-.86-.76-1.36s.3-.96.91-1.36c12.11-6.06,25.03-12.11,38.75-18.17,3.03-8.27,7.47-20.84,13.32-37.7,5.85-16.85,10.19-29.42,13.02-37.69.8-2.02,2.82-7.67,6.06-16.96,3.23-9.28,5.35-15.39,6.36-18.32,1.01-2.92,2.98-8.33,5.9-16.2,2.92-7.87,5.2-13.93,6.81-18.17,1.61-4.24,3.73-9.64,6.36-16.2,2.62-6.56,5.19-12.51,7.72-17.86,2.52-5.35,5.09-10.75,7.72-16.2.4-.8,1.01-1.01,1.82-.61.8.41,1.21,1.11,1.21,2.12-3.63,27.25-5.86,55.41-6.66,84.47-.61,26.85,0,54.5,1.82,82.96,5.25-1.82,9.79-3.23,13.62-4.24.61-.2,1.11-.1,1.51.3.4.41.55.91.45,1.51-.1.61-.45,1.01-1.06,1.21-4.24,1.21-9.08,2.72-14.53,4.54,1.41,19.78,3.33,40.07,5.75,60.86,3.23,27.05,6.96,51.77,11.2,74.18,2.22,12.31,4.64,23.92,7.27,34.82,1.01,4.04,1.71,6.96,2.12,8.78.4,1.82.96,4.09,1.67,6.81.71,2.72,1.41,5.15,2.12,7.27.71,2.12,1.36,4.19,1.97,6.21.61,2.02,1.21,3.58,1.82,4.69.61,1.11,1.21,1.56,1.82,1.36Zm-39.66-221.32c-2.62-50.87-1.21-99.31,4.24-145.33-7.67,16.35-15.64,35.83-23.92,58.43-2.83,7.87-17.46,49.46-43.9,124.74,21.19-9.08,42.59-17.05,64.19-23.92-.41-6.46-.61-11.1-.61-13.93Z"/>
    <path class="cls-1" d="m416.3,254.45c.4-.4.86-.5,1.36-.3.5.2.86.56,1.06,1.06.2.51.1,1.06-.3,1.67-4.84,5.25-11.2,10.9-19.07,16.96-.41.2-1.21.76-2.42,1.67-1.21.91-2.12,1.57-2.73,1.97-.61.41-1.47,1.06-2.57,1.97-1.11.91-2.07,1.57-2.88,1.97-.81.41-1.77.86-2.88,1.36-1.11.51-2.12.91-3.03,1.21s-1.87.45-2.88.45c-6.26.81-11-6.25-14.23-21.19-.2-2.22-.41-3.43-.61-3.63-1.21-2.22-2.83-1.92-4.84.91-1.21,1.62-2.42,4.14-3.63,7.57-2.42,5.86-4.54,9.99-6.36,12.41-.41.41-.96.51-1.67.3-.71-.2-1.06-.61-1.06-1.21-2.02-12.72-3.13-19.38-3.33-19.98-.61-4.84-1.31-7.57-2.12-8.17-2.02-2.02-5.05-.1-9.08,5.75-5.05,7.67-7.47,19.38-7.27,35.12,0,1.01-.51,1.56-1.51,1.67-1.01.1-1.62-.25-1.82-1.06-.2-2.22-.41-4.49-.61-6.81-.2-2.32-.36-4.69-.45-7.12-.1-2.42-.15-4.59-.15-6.51s.05-4.29.15-7.12c.1-2.82.2-5.04.3-6.66.1-1.61.25-3.94.45-6.96.2-3.03.4-5.25.61-6.66,0-1.01.45-1.56,1.36-1.67.91-.1,1.46.26,1.67,1.06.4,1.01.61,2.02.61,3.03,0,.41-.2.81-.61,1.21-.81,10.09-1.21,16.96-1.21,20.59,2.02-8.07,5.45-14.43,10.29-19.07,2.82-2.82,5.15-3.94,6.96-3.33,2.02.41,3.53,2.42,4.54,6.05,1.01,3.23,2.22,10.6,3.63,22.1.8-1.41,1.76-3.53,2.88-6.36,1.11-2.82,1.76-4.54,1.97-5.15,2.62-5.85,5.35-9.08,8.17-9.69,1.21-.2,2.27.15,3.18,1.06.91.91,1.46,1.77,1.67,2.57.2.81.5,1.92.91,3.33,1.61,9.08,3.94,15.24,6.96,18.47,2.02,2.22,5.15,2.22,9.39,0,3.03-1.61,6.66-3.94,10.9-6.96,8.07-6.06,14.84-12.01,20.29-17.86Z"/>
    <path class="cls-1" d="m421.45,235.37c-.41.41-1.01.96-1.82,1.67-.81.71-1.41,1.16-1.82,1.36l-.91.91c-.41.41-.81.61-1.21.61-.2.41-.4.61-.61.61,0,.41-.1.71-.3.91-.4.61-.91.91-1.51.91-1.01-.2-1.61-.71-1.82-1.51,0-.8.3-1.51.91-2.12-.4-.8-.3-1.41.3-1.82,2.02-2.01,4.44-3.33,7.27-3.94.61-.2,1.16.05,1.67.76.5.71.45,1.26-.15,1.67Zm187.11-77.81c.61,0,1.01.26,1.21.76.2.51.2,1.06,0,1.66-.2.61-.71.91-1.51.91-14.13.41-28.16,1.51-42.08,3.33-24.02,3.03-47.84,7.98-71.45,14.84-.81,3.23-1.51,6.26-2.12,9.08-1.82,6.26-3.63,12.31-5.45,18.17-3.63,39.56-3.74,75.39-.3,107.48,1.41,11.91,3.33,23.01,5.75,33.3,3.63,13.93,7.46,23.72,11.5,29.37,2.22,2.82,4.54,4.59,6.96,5.3,2.42.71,4.94-.15,7.57-2.57,1.41-1.62,3.83-5.65,7.27-12.11,5.25-9.69,9.89-19.88,13.93-30.58.2-.61.61-.96,1.21-1.06.61-.1,1.11.05,1.51.45.4.4.5.91.3,1.51-4.65,12.51-10.1,24.22-16.35,35.12-1.01,1.82-1.92,3.38-2.73,4.69-.81,1.31-1.92,2.72-3.33,4.24-1.42,1.51-2.78,2.57-4.09,3.18-1.31.61-2.88.86-4.69.76-1.82-.1-3.63-.86-5.45-2.27-5.45-4.04-10.19-12.82-14.23-26.34-3.23-10.9-5.75-22.81-7.57-35.73-2.42-19.38-3.33-43.09-2.73-71.15.2-10.29.71-20.89,1.51-31.79-8.48,23.62-18.77,43.2-30.88,58.74-6.46,8.48-12.21,13.93-17.26,16.35-2.63,1.21-5.15,1.86-7.57,1.97-2.42.1-4.54-.61-6.36-2.12-1.82-1.51-3.03-3.79-3.63-6.81-.2-1.41-.41-7.16-.61-17.26v-21.8c0-.8.25-1.31.76-1.51.5-.2,1.01-.2,1.51,0,.5.2.76.71.76,1.51l.3,22.4c0,.61-.05,2.53-.15,5.75-.1,3.23-.05,5.86.15,7.87.2,2.02.71,3.84,1.51,5.45,1.01,2.02,2.62,3.13,4.84,3.33,2.22.2,4.29-.2,6.21-1.21,1.92-1.01,3.68-2.12,5.3-3.33,5.65-4.44,11.51-11.4,17.56-20.89,7.27-10.9,13.82-23.62,19.68-38.15,3.23-7.46,6.15-15.24,8.78-23.31.61-7.87,1.41-15.74,2.42-23.62-22,6.86-43.3,15.34-63.88,25.43-.61.2-1.16.15-1.67-.15-.51-.3-.76-.76-.76-1.36s.3-1.01.91-1.21c12.72-6.25,25.63-11.91,38.75-16.96,8.88-3.23,17.96-6.25,27.25-9.08v-1.21c0-.4.05-.76.15-1.06.1-.3.15-.61.15-.91v-1.06c1.82-12.51,3.73-24.62,5.75-36.33,2.62-13.52,5.95-24.12,9.99-31.79.4-.8,1.01-1.01,1.82-.61.8,0,1.21.51,1.21,1.51-1.82,24.02-5.35,46.93-10.6,68.73,36.73-10.49,74.38-16.45,112.93-17.86Zm-119.59,31.49c.8-2.82,1.61-5.85,2.42-9.08-.2.2-.46.35-.76.45-.3.1-.56.15-.76.15-.2,2.62-.51,5.45-.91,8.48Zm3.33-12.72c4.44-18.77,7.67-38.75,9.69-59.95-2.02,6.06-4.04,14.43-6.06,25.13-2.22,11.71-4.04,23.52-5.45,35.42.61-.2,1.21-.4,1.82-.61Z"/>
  </g>
  <g>
    <path class="cls-1" d="m302.76,457.3c.61,0,1.11.2,1.51.61s.55.91.45,1.51c-.1.61-.45,1.01-1.06,1.21-1.21.2-2.22.15-3.03-.15-.81-.3-1.51-1.01-2.12-2.12-.61-1.11-1.01-1.97-1.21-2.57-.2-.61-.51-1.51-.91-2.73-2.02-6.86-3.94-13.93-5.75-21.19-3.43-13.12-6.56-27.25-9.39-42.39-8.48-44.41-14.23-89.82-17.26-136.25-22.21,7.07-44.1,15.24-65.7,24.52-18.57,53.08-32.5,92.85-41.78,119.29.8,1.61,1.01,2.92.61,3.94-.2.4-.71.8-1.51,1.21-.81.4-1.32.61-1.51.61-.41.61-1.01.7-1.82.3-.81-.41-1.11-1.01-.91-1.82,14.33-40.77,22.81-64.9,25.43-72.36,8.88-25.43,14.63-41.88,17.26-49.35-12.52,5.45-24.42,11-35.73,16.65-.61.4-1.16.4-1.67,0-.51-.41-.76-.86-.76-1.36s.3-.96.91-1.36c12.11-6.06,25.03-12.11,38.75-18.17,3.03-8.27,7.47-20.84,13.32-37.7,5.85-16.85,10.19-29.42,13.02-37.69.8-2.02,2.82-7.67,6.06-16.96,3.23-9.28,5.35-15.39,6.36-18.32,1.01-2.92,2.98-8.33,5.9-16.2,2.92-7.87,5.2-13.93,6.81-18.17,1.61-4.24,3.73-9.64,6.36-16.2,2.62-6.56,5.19-12.51,7.72-17.86,2.52-5.35,5.09-10.75,7.72-16.2.4-.8,1.01-1.01,1.82-.61.8.41,1.21,1.11,1.21,2.12-3.63,27.25-5.86,55.41-6.66,84.47-.61,26.85,0,54.5,1.82,82.96,5.25-1.82,9.79-3.23,13.62-4.24.61-.2,1.11-.1,1.51.3.4.41.55.91.45,1.51-.1.61-.45,1.01-1.06,1.21-4.24,1.21-9.08,2.72-14.53,4.54,1.41,19.78,3.33,40.07,5.75,60.86,3.23,27.05,6.96,51.77,11.2,74.18,2.22,12.31,4.64,23.92,7.27,34.82,1.01,4.04,1.71,6.96,2.12,8.78.4,1.82.96,4.09,1.67,6.81.71,2.72,1.41,5.15,2.12,7.27.71,2.12,1.36,4.19,1.97,6.21.61,2.02,1.21,3.58,1.82,4.69.61,1.11,1.21,1.56,1.82,1.36Zm-39.66-221.32c-2.62-50.87-1.21-99.31,4.24-145.33-7.67,16.35-15.64,35.83-23.92,58.43-2.83,7.87-17.46,49.46-43.9,124.74,21.19-9.08,42.59-17.05,64.19-23.92-.41-6.46-.61-11.1-.61-13.93Z"/>
    <path class="cls-1" d="m416.3,254.45c.4-.4.86-.5,1.36-.3.5.2.86.56,1.06,1.06.2.51.1,1.06-.3,1.67-4.84,5.25-11.2,10.9-19.07,16.96-.41.2-1.21.76-2.42,1.67-1.21.91-2.12,1.57-2.73,1.97-.61.41-1.47,1.06-2.57,1.97-1.11.91-2.07,1.57-2.88,1.97-.81.41-1.77.86-2.88,1.36-1.11.51-2.12.91-3.03,1.21s-1.87.45-2.88.45c-6.26.81-11-6.25-14.23-21.19-.2-2.22-.41-3.43-.61-3.63-1.21-2.22-2.83-1.92-4.84.91-1.21,1.62-2.42,4.14-3.63,7.57-2.42,5.86-4.54,9.99-6.36,12.41-.41.41-.96.51-1.67.3-.71-.2-1.06-.61-1.06-1.21-2.02-12.72-3.13-19.38-3.33-19.98-.61-4.84-1.31-7.57-2.12-8.17-2.02-2.02-5.05-.1-9.08,5.75-5.05,7.67-7.47,19.38-7.27,35.12,0,1.01-.51,1.56-1.51,1.67-1.01.1-1.62-.25-1.82-1.06-.2-2.22-.41-4.49-.61-6.81-.2-2.32-.36-4.69-.45-7.12-.1-2.42-.15-4.59-.15-6.51s.05-4.29.15-7.12c.1-2.82.2-5.04.3-6.66.1-1.61.25-3.94.45-6.96.2-3.03.4-5.25.61-6.66,0-1.01.45-1.56,1.36-1.67.91-.1,1.46.26,1.67,1.06.4,1.01.61,2.02.61,3.03,0,.41-.2.81-.61,1.21-.81,10.09-1.21,16.96-1.21,20.59,2.02-8.07,5.45-14.43,10.29-19.07,2.82-2.82,5.15-3.94,6.96-3.33,2.02.41,3.53,2.42,4.54,6.05,1.01,3.23,2.22,10.6,3.63,22.1.8-1.41,1.76-3.53,2.88-6.36,1.11-2.82,1.76-4.54,1.97-5.15,2.62-5.85,5.35-9.08,8.17-9.69,1.21-.2,2.27.15,3.18,1.06.91.91,1.46,1.77,1.67,2.57.2.81.5,1.92.91,3.33,1.61,9.08,3.94,15.24,6.96,18.47,2.02,2.22,5.15,2.22,9.39,0,3.03-1.61,6.66-3.94,10.9-6.96,8.07-6.06,14.84-12.01,20.29-17.86Z"/>
    <path class="cls-1" d="m421.45,235.37c-.41.41-1.01.96-1.82,1.67-.81.71-1.41,1.16-1.82,1.36l-.91.91c-.41.41-.81.61-1.21.61-.2.41-.4.61-.61.61,0,.41-.1.71-.3.91-.4.61-.91.91-1.51.91-1.01-.2-1.61-.71-1.82-1.51,0-.8.3-1.51.91-2.12-.4-.8-.3-1.41.3-1.82,2.02-2.01,4.44-3.33,7.27-3.94.61-.2,1.16.05,1.67.76.5.71.45,1.26-.15,1.67Zm187.11-77.81c.61,0,1.01.26,1.21.76.2.51.2,1.06,0,1.66-.2.61-.71.91-1.51.91-14.13.41-28.16,1.51-42.08,3.33-24.02,3.03-47.84,7.98-71.45,14.84-.81,3.23-1.51,6.26-2.12,9.08-1.82,6.26-3.63,12.31-5.45,18.17-3.63,39.56-3.74,75.39-.3,107.48,1.41,11.91,3.33,23.01,5.75,33.3,3.63,13.93,7.46,23.72,11.5,29.37,2.22,2.82,4.54,4.59,6.96,5.3,2.42.71,4.94-.15,7.57-2.57,1.41-1.62,3.83-5.65,7.27-12.11,5.25-9.69,9.89-19.88,13.93-30.58.2-.61.61-.96,1.21-1.06.61-.1,1.11.05,1.51.45.4.4.5.91.3,1.51-4.65,12.51-10.1,24.22-16.35,35.12-1.01,1.82-1.92,3.38-2.73,4.69-.81,1.31-1.92,2.72-3.33,4.24-1.42,1.51-2.78,2.57-4.09,3.18-1.31.61-2.88.86-4.69.76-1.82-.1-3.63-.86-5.45-2.27-5.45-4.04-10.19-12.82-14.23-26.34-3.23-10.9-5.75-22.81-7.57-35.73-2.42-19.38-3.33-43.09-2.73-71.15.2-10.29.71-20.89,1.51-31.79-8.48,23.62-18.77,43.2-30.88,58.74-6.46,8.48-12.21,13.93-17.26,16.35-2.63,1.21-5.15,1.86-7.57,1.97-2.42.1-4.54-.61-6.36-2.12-1.82-1.51-3.03-3.79-3.63-6.81-.2-1.41-.41-7.16-.61-17.26v-21.8c0-.8.25-1.31.76-1.51.5-.2,1.01-.2,1.51,0,.5.2.76.71.76,1.51l.3,22.4c0,.61-.05,2.53-.15,5.75-.1,3.23-.05,5.86.15,7.87.2,2.02.71,3.84,1.51,5.45,1.01,2.02,2.62,3.13,4.84,3.33,2.22.2,4.29-.2,6.21-1.21,1.92-1.01,3.68-2.12,5.3-3.33,5.65-4.44,11.51-11.4,17.56-20.89,7.27-10.9,13.82-23.62,19.68-38.15,3.23-7.46,6.15-15.24,8.78-23.31.61-7.87,1.41-15.74,2.42-23.62-22,6.86-43.3,15.34-63.88,25.43-.61.2-1.16.15-1.67-.15-.51-.3-.76-.76-.76-1.36s.3-1.01.91-1.21c12.72-6.25,25.63-11.91,38.75-16.96,8.88-3.23,17.96-6.25,27.25-9.08v-1.21c0-.4.05-.76.15-1.06.1-.3.15-.61.15-.91v-1.06c1.82-12.51,3.73-24.62,5.75-36.33,2.62-13.52,5.95-24.12,9.99-31.79.4-.8,1.01-1.01,1.82-.61.8,0,1.21.51,1.21,1.51-1.82,24.02-5.35,46.93-10.6,68.73,36.73-10.49,74.38-16.45,112.93-17.86Zm-119.59,31.49c.8-2.82,1.61-5.85,2.42-9.08-.2.2-.46.35-.76.45-.3.1-.56.15-.76.15-.2,2.62-.51,5.45-.91,8.48Zm3.33-12.72c4.44-18.77,7.67-38.75,9.69-59.95-2.02,6.06-4.04,14.43-6.06,25.13-2.22,11.71-4.04,23.52-5.45,35.42.61-.2,1.21-.4,1.82-.61Z"/>
  </g>
  <g>
    <path class="cls-1" d="m302.76,457.3c.61,0,1.11.2,1.51.61s.55.91.45,1.51c-.1.61-.45,1.01-1.06,1.21-1.21.2-2.22.15-3.03-.15-.81-.3-1.51-1.01-2.12-2.12-.61-1.11-1.01-1.97-1.21-2.57-.2-.61-.51-1.51-.91-2.73-2.02-6.86-3.94-13.93-5.75-21.19-3.43-13.12-6.56-27.25-9.39-42.39-8.48-44.41-14.23-89.82-17.26-136.25-22.21,7.07-44.1,15.24-65.7,24.52-18.57,53.08-32.5,92.85-41.78,119.29.8,1.61,1.01,2.92.61,3.94-.2.4-.71.8-1.51,1.21-.81.4-1.32.61-1.51.61-.41.61-1.01.7-1.82.3-.81-.41-1.11-1.01-.91-1.82,14.33-40.77,22.81-64.9,25.43-72.36,8.88-25.43,14.63-41.88,17.26-49.35-12.52,5.45-24.42,11-35.73,16.65-.61.4-1.16.4-1.67,0-.51-.41-.76-.86-.76-1.36s.3-.96.91-1.36c12.11-6.06,25.03-12.11,38.75-18.17,3.03-8.27,7.47-20.84,13.32-37.7,5.85-16.85,10.19-29.42,13.02-37.69.8-2.02,2.82-7.67,6.06-16.96,3.23-9.28,5.35-15.39,6.36-18.32,1.01-2.92,2.98-8.33,5.9-16.2,2.92-7.87,5.2-13.93,6.81-18.17,1.61-4.24,3.73-9.64,6.36-16.2,2.62-6.56,5.19-12.51,7.72-17.86,2.52-5.35,5.09-10.75,7.72-16.2.4-.8,1.01-1.01,1.82-.61.8.41,1.21,1.11,1.21,2.12-3.63,27.25-5.86,55.41-6.66,84.47-.61,26.85,0,54.5,1.82,82.96,5.25-1.82,9.79-3.23,13.62-4.24.61-.2,1.11-.1,1.51.3.4.41.55.91.45,1.51-.1.61-.45,1.01-1.06,1.21-4.24,1.21-9.08,2.72-14.53,4.54,1.41,19.78,3.33,40.07,5.75,60.86,3.23,27.05,6.96,51.77,11.2,74.18,2.22,12.31,4.64,23.92,7.27,34.82,1.01,4.04,1.71,6.96,2.12,8.78.4,1.82.96,4.09,1.67,6.81.71,2.72,1.41,5.15,2.12,7.27.71,2.12,1.36,4.19,1.97,6.21.61,2.02,1.21,3.58,1.82,4.69.61,1.11,1.21,1.56,1.82,1.36Zm-39.66-221.32c-2.62-50.87-1.21-99.31,4.24-145.33-7.67,16.35-15.64,35.83-23.92,58.43-2.83,7.87-17.46,49.46-43.9,124.74,21.19-9.08,42.59-17.05,64.19-23.92-.41-6.46-.61-11.1-.61-13.93Z"/>
    <path class="cls-1" d="m416.3,254.45c.4-.4.86-.5,1.36-.3.5.2.86.56,1.06,1.06.2.51.1,1.06-.3,1.67-4.84,5.25-11.2,10.9-19.07,16.96-.41.2-1.21.76-2.42,1.67-1.21.91-2.12,1.57-2.73,1.97-.61.41-1.47,1.06-2.57,1.97-1.11.91-2.07,1.57-2.88,1.97-.81.41-1.77.86-2.88,1.36-1.11.51-2.12.91-3.03,1.21s-1.87.45-2.88.45c-6.26.81-11-6.25-14.23-21.19-.2-2.22-.41-3.43-.61-3.63-1.21-2.22-2.83-1.92-4.84.91-1.21,1.62-2.42,4.14-3.63,7.57-2.42,5.86-4.54,9.99-6.36,12.41-.41.41-.96.51-1.67.3-.71-.2-1.06-.61-1.06-1.21-2.02-12.72-3.13-19.38-3.33-19.98-.61-4.84-1.31-7.57-2.12-8.17-2.02-2.02-5.05-.1-9.08,5.75-5.05,7.67-7.47,19.38-7.27,35.12,0,1.01-.51,1.56-1.51,1.67-1.01.1-1.62-.25-1.82-1.06-.2-2.22-.41-4.49-.61-6.81-.2-2.32-.36-4.69-.45-7.12-.1-2.42-.15-4.59-.15-6.51s.05-4.29.15-7.12c.1-2.82.2-5.04.3-6.66.1-1.61.25-3.94.45-6.96.2-3.03.4-5.25.61-6.66,0-1.01.45-1.56,1.36-1.67.91-.1,1.46.26,1.67,1.06.4,1.01.61,2.02.61,3.03,0,.41-.2.81-.61,1.21-.81,10.09-1.21,16.96-1.21,20.59,2.02-8.07,5.45-14.43,10.29-19.07,2.82-2.82,5.15-3.94,6.96-3.33,2.02.41,3.53,2.42,4.54,6.05,1.01,3.23,2.22,10.6,3.63,22.1.8-1.41,1.76-3.53,2.88-6.36,1.11-2.82,1.76-4.54,1.97-5.15,2.62-5.85,5.35-9.08,8.17-9.69,1.21-.2,2.27.15,3.18,1.06.91.91,1.46,1.77,1.67,2.57.2.81.5,1.92.91,3.33,1.61,9.08,3.94,15.24,6.96,18.47,2.02,2.22,5.15,2.22,9.39,0,3.03-1.61,6.66-3.94,10.9-6.96,8.07-6.06,14.84-12.01,20.29-17.86Z"/>
    <path class="cls-1" d="m421.45,235.37c-.41.41-1.01.96-1.82,1.67-.81.71-1.41,1.16-1.82,1.36l-.91.91c-.41.41-.81.61-1.21.61-.2.41-.4.61-.61.61,0,.41-.1.71-.3.91-.4.61-.91.91-1.51.91-1.01-.2-1.61-.71-1.82-1.51,0-.8.3-1.51.91-2.12-.4-.8-.3-1.41.3-1.82,2.02-2.01,4.44-3.33,7.27-3.94.61-.2,1.16.05,1.67.76.5.71.45,1.26-.15,1.67Zm187.11-77.81c.61,0,1.01.26,1.21.76.2.51.2,1.06,0,1.66-.2.61-.71.91-1.51.91-14.13.41-28.16,1.51-42.08,3.33-24.02,3.03-47.84,7.98-71.45,14.84-.81,3.23-1.51,6.26-2.12,9.08-1.82,6.26-3.63,12.31-5.45,18.17-3.63,39.56-3.74,75.39-.3,107.48,1.41,11.91,3.33,23.01,5.75,33.3,3.63,13.93,7.46,23.72,11.5,29.37,2.22,2.82,4.54,4.59,6.96,5.3,2.42.71,4.94-.15,7.57-2.57,1.41-1.62,3.83-5.65,7.27-12.11,5.25-9.69,9.89-19.88,13.93-30.58.2-.61.61-.96,1.21-1.06.61-.1,1.11.05,1.51.45.4.4.5.91.3,1.51-4.65,12.51-10.1,24.22-16.35,35.12-1.01,1.82-1.92,3.38-2.73,4.69-.81,1.31-1.92,2.72-3.33,4.24-1.42,1.51-2.78,2.57-4.09,3.18-1.31.61-2.88.86-4.69.76-1.82-.1-3.63-.86-5.45-2.27-5.45-4.04-10.19-12.82-14.23-26.34-3.23-10.9-5.75-22.81-7.57-35.73-2.42-19.38-3.33-43.09-2.73-71.15.2-10.29.71-20.89,1.51-31.79-8.48,23.62-18.77,43.2-30.88,58.74-6.46,8.48-12.21,13.93-17.26,16.35-2.63,1.21-5.15,1.86-7.57,1.97-2.42.1-4.54-.61-6.36-2.12-1.82-1.51-3.03-3.79-3.63-6.81-.2-1.41-.41-7.16-.61-17.26v-21.8c0-.8.25-1.31.76-1.51.5-.2,1.01-.2,1.51,0,.5.2.76.71.76,1.51l.3,22.4c0,.61-.05,2.53-.15,5.75-.1,3.23-.05,5.86.15,7.87.2,2.02.71,3.84,1.51,5.45,1.01,2.02,2.62,3.13,4.84,3.33,2.22.2,4.29-.2,6.21-1.21,1.92-1.01,3.68-2.12,5.3-3.33,5.65-4.44,11.51-11.4,17.56-20.89,7.27-10.9,13.82-23.62,19.68-38.15,3.23-7.46,6.15-15.24,8.78-23.31.61-7.87,1.41-15.74,2.42-23.62-22,6.86-43.3,15.34-63.88,25.43-.61.2-1.16.15-1.67-.15-.51-.3-.76-.76-.76-1.36s.3-1.01.91-1.21c12.72-6.25,25.63-11.91,38.75-16.96,8.88-3.23,17.96-6.25,27.25-9.08v-1.21c0-.4.05-.76.15-1.06.1-.3.15-.61.15-.91v-1.06c1.82-12.51,3.73-24.62,5.75-36.33,2.62-13.52,5.95-24.12,9.99-31.79.4-.8,1.01-1.01,1.82-.61.8,0,1.21.51,1.21,1.51-1.82,24.02-5.35,46.93-10.6,68.73,36.73-10.49,74.38-16.45,112.93-17.86Zm-119.59,31.49c.8-2.82,1.61-5.85,2.42-9.08-.2.2-.46.35-.76.45-.3.1-.56.15-.76.15-.2,2.62-.51,5.45-.91,8.48Zm3.33-12.72c4.44-18.77,7.67-38.75,9.69-59.95-2.02,6.06-4.04,14.43-6.06,25.13-2.22,11.71-4.04,23.52-5.45,35.42.61-.2,1.21-.4,1.82-.61Z"/>
  </g>
  <g>
    <path class="cls-1" d="m302.76,457.3c.61,0,1.11.2,1.51.61s.55.91.45,1.51c-.1.61-.45,1.01-1.06,1.21-1.21.2-2.22.15-3.03-.15-.81-.3-1.51-1.01-2.12-2.12-.61-1.11-1.01-1.97-1.21-2.57-.2-.61-.51-1.51-.91-2.73-2.02-6.86-3.94-13.93-5.75-21.19-3.43-13.12-6.56-27.25-9.39-42.39-8.48-44.41-14.23-89.82-17.26-136.25-22.21,7.07-44.1,15.24-65.7,24.52-18.57,53.08-32.5,92.85-41.78,119.29.8,1.61,1.01,2.92.61,3.94-.2.4-.71.8-1.51,1.21-.81.4-1.32.61-1.51.61-.41.61-1.01.7-1.82.3-.81-.41-1.11-1.01-.91-1.82,14.33-40.77,22.81-64.9,25.43-72.36,8.88-25.43,14.63-41.88,17.26-49.35-12.52,5.45-24.42,11-35.73,16.65-.61.4-1.16.4-1.67,0-.51-.41-.76-.86-.76-1.36s.3-.96.91-1.36c12.11-6.06,25.03-12.11,38.75-18.17,3.03-8.27,7.47-20.84,13.32-37.7,5.85-16.85,10.19-29.42,13.02-37.69.8-2.02,2.82-7.67,6.06-16.96,3.23-9.28,5.35-15.39,6.36-18.32,1.01-2.92,2.98-8.33,5.9-16.2,2.92-7.87,5.2-13.93,6.81-18.17,1.61-4.24,3.73-9.64,6.36-16.2,2.62-6.56,5.19-12.51,7.72-17.86,2.52-5.35,5.09-10.75,7.72-16.2.4-.8,1.01-1.01,1.82-.61.8.41,1.21,1.11,1.21,2.12-3.63,27.25-5.86,55.41-6.66,84.47-.61,26.85,0,54.5,1.82,82.96,5.25-1.82,9.79-3.23,13.62-4.24.61-.2,1.11-.1,1.51.3.4.41.55.91.45,1.51-.1.61-.45,1.01-1.06,1.21-4.24,1.21-9.08,2.72-14.53,4.54,1.41,19.78,3.33,40.07,5.75,60.86,3.23,27.05,6.96,51.77,11.2,74.18,2.22,12.31,4.64,23.92,7.27,34.82,1.01,4.04,1.71,6.96,2.12,8.78.4,1.82.96,4.09,1.67,6.81.71,2.72,1.41,5.15,2.12,7.27.71,2.12,1.36,4.19,1.97,6.21.61,2.02,1.21,3.58,1.82,4.69.61,1.11,1.21,1.56,1.82,1.36Zm-39.66-221.32c-2.62-50.87-1.21-99.31,4.24-145.33-7.67,16.35-15.64,35.83-23.92,58.43-2.83,7.87-17.46,49.46-43.9,124.74,21.19-9.08,42.59-17.05,64.19-23.92-.41-6.46-.61-11.1-.61-13.93Z"/>
    <path class="cls-1" d="m416.3,254.45c.4-.4.86-.5,1.36-.3.5.2.86.56,1.06,1.06.2.51.1,1.06-.3,1.67-4.84,5.25-11.2,10.9-19.07,16.96-.41.2-1.21.76-2.42,1.67-1.21.91-2.12,1.57-2.73,1.97-.61.41-1.47,1.06-2.57,1.97-1.11.91-2.07,1.57-2.88,1.97-.81.41-1.77.86-2.88,1.36-1.11.51-2.12.91-3.03,1.21s-1.87.45-2.88.45c-6.26.81-11-6.25-14.23-21.19-.2-2.22-.41-3.43-.61-3.63-1.21-2.22-2.83-1.92-4.84.91-1.21,1.62-2.42,4.14-3.63,7.57-2.42,5.86-4.54,9.99-6.36,12.41-.41.41-.96.51-1.67.3-.71-.2-1.06-.61-1.06-1.21-2.02-12.72-3.13-19.38-3.33-19.98-.61-4.84-1.31-7.57-2.12-8.17-2.02-2.02-5.05-.1-9.08,5.75-5.05,7.67-7.47,19.38-7.27,35.12,0,1.01-.51,1.56-1.51,1.67-1.01.1-1.62-.25-1.82-1.06-.2-2.22-.41-4.49-.61-6.81-.2-2.32-.36-4.69-.45-7.12-.1-2.42-.15-4.59-.15-6.51s.05-4.29.15-7.12c.1-2.82.2-5.04.3-6.66.1-1.61.25-3.94.45-6.96.2-3.03.4-5.25.61-6.66,0-1.01.45-1.56,1.36-1.67.91-.1,1.46.26,1.67,1.06.4,1.01.61,2.02.61,3.03,0,.41-.2.81-.61,1.21-.81,10.09-1.21,16.96-1.21,20.59,2.02-8.07,5.45-14.43,10.29-19.07,2.82-2.82,5.15-3.94,6.96-3.33,2.02.41,3.53,2.42,4.54,6.05,1.01,3.23,2.22,10.6,3.63,22.1.8-1.41,1.76-3.53,2.88-6.36,1.11-2.82,1.76-4.54,1.97-5.15,2.62-5.85,5.35-9.08,8.17-9.69,1.21-.2,2.27.15,3.18,1.06.91.91,1.46,1.77,1.67,2.57.2.81.5,1.92.91,3.33,1.61,9.08,3.94,15.24,6.96,18.47,2.02,2.22,5.15,2.22,9.39,0,3.03-1.61,6.66-3.94,10.9-6.96,8.07-6.06,14.84-12.01,20.29-17.86Z"/>
    <path class="cls-1" d="m421.45,235.37c-.41.41-1.01.96-1.82,1.67-.81.71-1.41,1.16-1.82,1.36l-.91.91c-.41.41-.81.61-1.21.61-.2.41-.4.61-.61.61,0,.41-.1.71-.3.91-.4.61-.91.91-1.51.91-1.01-.2-1.61-.71-1.82-1.51,0-.8.3-1.51.91-2.12-.4-.8-.3-1.41.3-1.82,2.02-2.01,4.44-3.33,7.27-3.94.61-.2,1.16.05,1.67.76.5.71.45,1.26-.15,1.67Zm187.11-77.81c.61,0,1.01.26,1.21.76.2.51.2,1.06,0,1.66-.2.61-.71.91-1.51.91-14.13.41-28.16,1.51-42.08,3.33-24.02,3.03-47.84,7.98-71.45,14.84-.81,3.23-1.51,6.26-2.12,9.08-1.82,6.26-3.63,12.31-5.45,18.17-3.63,39.56-3.74,75.39-.3,107.48,1.41,11.91,3.33,23.01,5.75,33.3,3.63,13.93,7.46,23.72,11.5,29.37,2.22,2.82,4.54,4.59,6.96,5.3,2.42.71,4.94-.15,7.57-2.57,1.41-1.62,3.83-5.65,7.27-12.11,5.25-9.69,9.89-19.88,13.93-30.58.2-.61.61-.96,1.21-1.06.61-.1,1.11.05,1.51.45.4.4.5.91.3,1.51-4.65,12.51-10.1,24.22-16.35,35.12-1.01,1.82-1.92,3.38-2.73,4.69-.81,1.31-1.92,2.72-3.33,4.24-1.42,1.51-2.78,2.57-4.09,3.18-1.31.61-2.88.86-4.69.76-1.82-.1-3.63-.86-5.45-2.27-5.45-4.04-10.19-12.82-14.23-26.34-3.23-10.9-5.75-22.81-7.57-35.73-2.42-19.38-3.33-43.09-2.73-71.15.2-10.29.71-20.89,1.51-31.79-8.48,23.62-18.77,43.2-30.88,58.74-6.46,8.48-12.21,13.93-17.26,16.35-2.63,1.21-5.15,1.86-7.57,1.97-2.42.1-4.54-.61-6.36-2.12-1.82-1.51-3.03-3.79-3.63-6.81-.2-1.41-.41-7.16-.61-17.26v-21.8c0-.8.25-1.31.76-1.51.5-.2,1.01-.2,1.51,0,.5.2.76.71.76,1.51l.3,22.4c0,.61-.05,2.53-.15,5.75-.1,3.23-.05,5.86.15,7.87.2,2.02.71,3.84,1.51,5.45,1.01,2.02,2.62,3.13,4.84,3.33,2.22.2,4.29-.2,6.21-1.21,1.92-1.01,3.68-2.12,5.3-3.33,5.65-4.44,11.51-11.4,17.56-20.89,7.27-10.9,13.82-23.62,19.68-38.15,3.23-7.46,6.15-15.24,8.78-23.31.61-7.87,1.41-15.74,2.42-23.62-22,6.86-43.3,15.34-63.88,25.43-.61.2-1.16.15-1.67-.15-.51-.3-.76-.76-.76-1.36s.3-1.01.91-1.21c12.72-6.25,25.63-11.91,38.75-16.96,8.88-3.23,17.96-6.25,27.25-9.08v-1.21c0-.4.05-.76.15-1.06.1-.3.15-.61.15-.91v-1.06c1.82-12.51,3.73-24.62,5.75-36.33,2.62-13.52,5.95-24.12,9.99-31.79.4-.8,1.01-1.01,1.82-.61.8,0,1.21.51,1.21,1.51-1.82,24.02-5.35,46.93-10.6,68.73,36.73-10.49,74.38-16.45,112.93-17.86Zm-119.59,31.49c.8-2.82,1.61-5.85,2.42-9.08-.2.2-.46.35-.76.45-.3.1-.56.15-.76.15-.2,2.62-.51,5.45-.91,8.48Zm3.33-12.72c4.44-18.77,7.67-38.75,9.69-59.95-2.02,6.06-4.04,14.43-6.06,25.13-2.22,11.71-4.04,23.52-5.45,35.42.61-.2,1.21-.4,1.82-.61Z"/>
  </g>
  <g>
    <path class="cls-1" d="m302.76,457.3c.61,0,1.11.2,1.51.61s.55.91.45,1.51c-.1.61-.45,1.01-1.06,1.21-1.21.2-2.22.15-3.03-.15-.81-.3-1.51-1.01-2.12-2.12-.61-1.11-1.01-1.97-1.21-2.57-.2-.61-.51-1.51-.91-2.73-2.02-6.86-3.94-13.93-5.75-21.19-3.43-13.12-6.56-27.25-9.39-42.39-8.48-44.41-14.23-89.82-17.26-136.25-22.21,7.07-44.1,15.24-65.7,24.52-18.57,53.08-32.5,92.85-41.78,119.29.8,1.61,1.01,2.92.61,3.94-.2.4-.71.8-1.51,1.21-.81.4-1.32.61-1.51.61-.41.61-1.01.7-1.82.3-.81-.41-1.11-1.01-.91-1.82,14.33-40.77,22.81-64.9,25.43-72.36,8.88-25.43,14.63-41.88,17.26-49.35-12.52,5.45-24.42,11-35.73,16.65-.61.4-1.16.4-1.67,0-.51-.41-.76-.86-.76-1.36s.3-.96.91-1.36c12.11-6.06,25.03-12.11,38.75-18.17,3.03-8.27,7.47-20.84,13.32-37.7,5.85-16.85,10.19-29.42,13.02-37.69.8-2.02,2.82-7.67,6.06-16.96,3.23-9.28,5.35-15.39,6.36-18.32,1.01-2.92,2.98-8.33,5.9-16.2,2.92-7.87,5.2-13.93,6.81-18.17,1.61-4.24,3.73-9.64,6.36-16.2,2.62-6.56,5.19-12.51,7.72-17.86,2.52-5.35,5.09-10.75,7.72-16.2.4-.8,1.01-1.01,1.82-.61.8.41,1.21,1.11,1.21,2.12-3.63,27.25-5.86,55.41-6.66,84.47-.61,26.85,0,54.5,1.82,82.96,5.25-1.82,9.79-3.23,13.62-4.24.61-.2,1.11-.1,1.51.3.4.41.55.91.45,1.51-.1.61-.45,1.01-1.06,1.21-4.24,1.21-9.08,2.72-14.53,4.54,1.41,19.78,3.33,40.07,5.75,60.86,3.23,27.05,6.96,51.77,11.2,74.18,2.22,12.31,4.64,23.92,7.27,34.82,1.01,4.04,1.71,6.96,2.12,8.78.4,1.82.96,4.09,1.67,6.81.71,2.72,1.41,5.15,2.12,7.27.71,2.12,1.36,4.19,1.97,6.21.61,2.02,1.21,3.58,1.82,4.69.61,1.11,1.21,1.56,1.82,1.36Zm-39.66-221.32c-2.62-50.87-1.21-99.31,4.24-145.33-7.67,16.35-15.64,35.83-23.92,58.43-2.83,7.87-17.46,49.46-43.9,124.74,21.19-9.08,42.59-17.05,64.19-23.92-.41-6.46-.61-11.1-.61-13.93Z"/>
    <path class="cls-1" d="m416.3,254.45c.4-.4.86-.5,1.36-.3.5.2.86.56,1.06,1.06.2.51.1,1.06-.3,1.67-4.84,5.25-11.2,10.9-19.07,16.96-.41.2-1.21.76-2.42,1.67-1.21.91-2.12,1.57-2.73,1.97-.61.41-1.47,1.06-2.57,1.97-1.11.91-2.07,1.57-2.88,1.97-.81.41-1.77.86-2.88,1.36-1.11.51-2.12.91-3.03,1.21s-1.87.45-2.88.45c-6.26.81-11-6.25-14.23-21.19-.2-2.22-.41-3.43-.61-3.63-1.21-2.22-2.83-1.92-4.84.91-1.21,1.62-2.42,4.14-3.63,7.57-2.42,5.86-4.54,9.99-6.36,12.41-.41.41-.96.51-1.67.3-.71-.2-1.06-.61-1.06-1.21-2.02-12.72-3.13-19.38-3.33-19.98-.61-4.84-1.31-7.57-2.12-8.17-2.02-2.02-5.05-.1-9.08,5.75-5.05,7.67-7.47,19.38-7.27,35.12,0,1.01-.51,1.56-1.51,1.67-1.01.1-1.62-.25-1.82-1.06-.2-2.22-.41-4.49-.61-6.81-.2-2.32-.36-4.69-.45-7.12-.1-2.42-.15-4.59-.15-6.51s.05-4.29.15-7.12c.1-2.82.2-5.04.3-6.66.1-1.61.25-3.94.45-6.96.2-3.03.4-5.25.61-6.66,0-1.01.45-1.56,1.36-1.67.91-.1,1.46.26,1.67,1.06.4,1.01.61,2.02.61,3.03,0,.41-.2.81-.61,1.21-.81,10.09-1.21,16.96-1.21,20.59,2.02-8.07,5.45-14.43,10.29-19.07,2.82-2.82,5.15-3.94,6.96-3.33,2.02.41,3.53,2.42,4.54,6.05,1.01,3.23,2.22,10.6,3.63,22.1.8-1.41,1.76-3.53,2.88-6.36,1.11-2.82,1.76-4.54,1.97-5.15,2.62-5.85,5.35-9.08,8.17-9.69,1.21-.2,2.27.15,3.18,1.06.91.91,1.46,1.77,1.67,2.57.2.81.5,1.92.91,3.33,1.61,9.08,3.94,15.24,6.96,18.47,2.02,2.22,5.15,2.22,9.39,0,3.03-1.61,6.66-3.94,10.9-6.96,8.07-6.06,14.84-12.01,20.29-17.86Z"/>
    <path class="cls-1" d="m421.45,235.37c-.41.41-1.01.96-1.82,1.67-.81.71-1.41,1.16-1.82,1.36l-.91.91c-.41.41-.81.61-1.21.61-.2.41-.4.61-.61.61,0,.41-.1.71-.3.91-.4.61-.91.91-1.51.91-1.01-.2-1.61-.71-1.82-1.51,0-.8.3-1.51.91-2.12-.4-.8-.3-1.41.3-1.82,2.02-2.01,4.44-3.33,7.27-3.94.61-.2,1.16.05,1.67.76.5.71.45,1.26-.15,1.67Zm187.11-77.81c.61,0,1.01.26,1.21.76.2.51.2,1.06,0,1.66-.2.61-.71.91-1.51.91-14.13.41-28.16,1.51-42.08,3.33-24.02,3.03-47.84,7.98-71.45,14.84-.81,3.23-1.51,6.26-2.12,9.08-1.82,6.26-3.63,12.31-5.45,18.17-3.63,39.56-3.74,75.39-.3,107.48,1.41,11.91,3.33,23.01,5.75,33.3,3.63,13.93,7.46,23.72,11.5,29.37,2.22,2.82,4.54,4.59,6.96,5.3,2.42.71,4.94-.15,7.57-2.57,1.41-1.62,3.83-5.65,7.27-12.11,5.25-9.69,9.89-19.88,13.93-30.58.2-.61.61-.96,1.21-1.06.61-.1,1.11.05,1.51.45.4.4.5.91.3,1.51-4.65,12.51-10.1,24.22-16.35,35.12-1.01,1.82-1.92,3.38-2.73,4.69-.81,1.31-1.92,2.72-3.33,4.24-1.42,1.51-2.78,2.57-4.09,3.18-1.31.61-2.88.86-4.69.76-1.82-.1-3.63-.86-5.45-2.27-5.45-4.04-10.19-12.82-14.23-26.34-3.23-10.9-5.75-22.81-7.57-35.73-2.42-19.38-3.33-43.09-2.73-71.15.2-10.29.71-20.89,1.51-31.79-8.48,23.62-18.77,43.2-30.88,58.74-6.46,8.48-12.21,13.93-17.26,16.35-2.63,1.21-5.15,1.86-7.57,1.97-2.42.1-4.54-.61-6.36-2.12-1.82-1.51-3.03-3.79-3.63-6.81-.2-1.41-.41-7.16-.61-17.26v-21.8c0-.8.25-1.31.76-1.51.5-.2,1.01-.2,1.51,0,.5.2.76.71.76,1.51l.3,22.4c0,.61-.05,2.53-.15,5.75-.1,3.23-.05,5.86.15,7.87.2,2.02.71,3.84,1.51,5.45,1.01,2.02,2.62,3.13,4.84,3.33,2.22.2,4.29-.2,6.21-1.21,1.92-1.01,3.68-2.12,5.3-3.33,5.65-4.44,11.51-11.4,17.56-20.89,7.27-10.9,13.82-23.62,19.68-38.15,3.23-7.46,6.15-15.24,8.78-23.31.61-7.87,1.41-15.74,2.42-23.62-22,6.86-43.3,15.34-63.88,25.43-.61.2-1.16.15-1.67-.15-.51-.3-.76-.76-.76-1.36s.3-1.01.91-1.21c12.72-6.25,25.63-11.91,38.75-16.96,8.88-3.23,17.96-6.25,27.25-9.08v-1.21c0-.4.05-.76.15-1.06.1-.3.15-.61.15-.91v-1.06c1.82-12.51,3.73-24.62,5.75-36.33,2.62-13.52,5.95-24.12,9.99-31.79.4-.8,1.01-1.01,1.82-.61.8,0,1.21.51,1.21,1.51-1.82,24.02-5.35,46.93-10.6,68.73,36.73-10.49,74.38-16.45,112.93-17.86Zm-119.59,31.49c.8-2.82,1.61-5.85,2.42-9.08-.2.2-.46.35-.76.45-.3.1-.56.15-.76.15-.2,2.62-.51,5.45-.91,8.48Zm3.33-12.72c4.44-18.77,7.67-38.75,9.69-59.95-2.02,6.06-4.04,14.43-6.06,25.13-2.22,11.71-4.04,23.52-5.45,35.42.61-.2,1.21-.4,1.82-.61Z"/>
  </g>
  <g>
    <path class="cls-1" d="m217.32,305.96h19.03c2.33,0,4.89.09,7.67.28,2.78.19,5.36.77,7.76,1.75,2.4.98,4.4,2.49,6.01,4.54s2.41,4.94,2.41,8.66-.96,6.8-2.89,9.23c-1.93,2.43-4.4,4.06-7.43,4.88v.95c1.7.51,3.31,1.17,4.83,1.99,1.51.82,2.84,1.86,3.98,3.12,1.14,1.26,2.02,2.76,2.65,4.5.63,1.74.95,3.77.95,6.11,0,3.79-.66,6.82-1.99,9.09s-3.03,4.01-5.11,5.21c-2.08,1.2-4.42,1.97-7,2.32-2.59.35-5.11.52-7.57.52h-23.29v-1.61h5.11v-59.93h-5.11v-1.61Zm15.62,28.78h1.33c1.77,0,3.57-.14,5.4-.43,1.83-.28,3.5-.9,5.02-1.85,1.51-.95,2.75-2.27,3.69-3.98.95-1.7,1.42-3.98,1.42-6.82,0-2.21-.4-4.21-1.18-6.01-.79-1.8-1.82-3.33-3.08-4.59-1.26-1.26-2.7-2.22-4.31-2.89-1.61-.66-3.27-.99-4.97-.99-.51,0-1.03.05-1.56.14s-1.12.21-1.75.33v27.08Zm0,32.76h5.21c3.85,0,6.97-1.31,9.37-3.93,2.4-2.62,3.6-6.26,3.6-10.93,0-3.47-.44-6.28-1.33-8.43-.88-2.14-2.13-3.8-3.74-4.97-1.61-1.17-3.52-1.96-5.73-2.37-2.21-.41-4.67-.62-7.38-.62v31.24Z"/>
    <path class="cls-1" d="m303.85,337.87v29.63h6.15v1.61h-23.1v-1.61h5.68l-.47-59.93h-5.21v-1.61h23.1v1.61h-6.15v28.4h25.66v-28.4h-5.96v-1.61h23.1v1.61h-5.96v59.93h5.96v1.61h-23.1v-1.61h5.96v-29.63h-25.66Z"/>
    <path class="cls-1" d="m367,367.5c1.39,0,2.52-.09,3.41-.28.88-.19,1.61-.54,2.18-1.04.57-.5,1.04-1.25,1.42-2.22.38-.98.82-2.22,1.33-3.74,2.71-9.21,5.46-18.41,8.24-27.6,2.78-9.18,5.55-18.38,8.33-27.6h3.22l20.16,62.48h4.17v1.61h-22.63v-1.61h6.34l-6.06-19.03h-16.47l-.66,1.89c-.32.95-.7,2.15-1.14,3.6-.44,1.45-.87,2.9-1.28,4.36-.41,1.45-.77,2.78-1.09,3.98-.32,1.2-.47,2.02-.47,2.46,0,.76.3,1.33.9,1.7.6.38,1.31.65,2.13.8.82.16,1.66.24,2.51.24h2.22v1.61h-16.76v-1.61Zm14.11-20.64h15.53l-7.95-24.8-7.57,24.8Z"/>
    <path class="cls-1" d="m456.74,307.57h-1.33c-3.03,0-5.52.24-7.48.71-1.96.47-3.52,1.36-4.69,2.65-1.17,1.29-1.99,3.06-2.46,5.3-.47,2.24-.71,5.16-.71,8.76h-1.7c.13-3.28.2-6.47.24-9.56.03-3.09.11-6.25.24-9.47h46.86c.06,3.22.11,6.38.14,9.47.03,3.09.08,6.28.14,9.56h-1.52c0-3.85-.25-6.93-.76-9.23-.51-2.3-1.37-4.07-2.6-5.3s-2.9-2.02-5.02-2.37c-2.12-.35-4.84-.52-8.19-.52v59.93h6.44v1.61h-24.33v-1.61h6.72v-59.93Z"/>
    <path class="cls-1" d="m505.4,367.5c1.39,0,2.52-.09,3.41-.28s1.61-.54,2.18-1.04c.57-.5,1.04-1.25,1.42-2.22s.82-2.22,1.33-3.74c2.71-9.21,5.46-18.41,8.24-27.6,2.78-9.18,5.55-18.38,8.33-27.6h3.22l20.16,62.48h4.17v1.61h-22.63v-1.61h6.34l-6.06-19.03h-16.47l-.66,1.89c-.32.95-.7,2.15-1.14,3.6-.44,1.45-.87,2.9-1.28,4.36-.41,1.45-.77,2.78-1.09,3.98-.32,1.2-.47,2.02-.47,2.46,0,.76.3,1.33.9,1.7.6.38,1.31.65,2.13.8.82.16,1.66.24,2.51.24h2.22v1.61h-16.76v-1.61Zm14.11-20.64h15.53l-7.95-24.8-7.57,24.8Z"/>
    <path class="cls-1" d="m580.38,346.58h1.42c.25,3.22.76,6.14,1.51,8.76.76,2.62,1.85,4.88,3.27,6.77,1.42,1.89,3.2,3.36,5.35,4.4,2.14,1.04,4.7,1.56,7.67,1.56,1.83,0,3.49-.28,4.97-.85,1.48-.57,2.71-1.37,3.69-2.41.98-1.04,1.64-2.29,1.99-3.74.35-1.45.3-3.03-.14-4.73-.51-1.83-1.72-3.31-3.65-4.45-1.93-1.14-4.18-2.3-6.77-3.5-2.21-1.01-4.47-2.11-6.77-3.31-2.3-1.2-4.43-2.7-6.39-4.5-1.96-1.8-3.55-3.96-4.78-6.48-1.23-2.52-1.85-5.62-1.85-9.28,0-.57.01-1.2.05-1.89.03-.69.11-1.39.24-2.08.69-5.11,2.43-8.91,5.21-11.41,2.78-2.49,6.53-3.86,11.27-4.12,2.65-.06,4.86.35,6.63,1.23,1.77.88,3.22,1.74,4.35,2.56,1.07.88,1.96,1.33,2.65,1.33.88,0,1.42-.43,1.61-1.28.19-.85.28-1.66.28-2.41h1.51v19.03h-1.61c-.44-2.78-1.04-5.32-1.8-7.62-.76-2.3-1.75-4.26-2.98-5.87s-2.73-2.86-4.5-3.74c-1.77-.88-3.88-1.33-6.34-1.33-1.64,0-3.22.22-4.73.66-1.51.44-2.83,1.12-3.93,2.04-1.11.92-1.96,2.1-2.56,3.55-.6,1.45-.84,3.19-.71,5.21.13,1.7.57,3.17,1.33,4.4.76,1.23,1.73,2.3,2.93,3.22,1.2.92,2.56,1.72,4.07,2.41,1.51.7,3.09,1.36,4.73,1.99,2.08.82,4.18,1.75,6.3,2.79,2.11,1.04,4.07,2.33,5.87,3.88,1.8,1.55,3.31,3.42,4.54,5.63,1.23,2.21,2,4.89,2.32,8.05.12,2.9-.24,5.54-1.09,7.91-.85,2.37-2.05,4.4-3.6,6.11-1.55,1.7-3.41,3.01-5.59,3.93-2.18.91-4.53,1.37-7.05,1.37s-4.64-.36-6.53-1.09c-1.89-.72-3.54-1.43-4.92-2.13-.76-.44-1.47-.8-2.13-1.09-.66-.28-1.31-.43-1.94-.43-.7,0-1.18.51-1.47,1.51-.28,1.01-.46,1.89-.52,2.65h-1.42v-23.19Z"/>
    <path class="cls-1" d="m638.51,367.5c1.39,0,2.52-.09,3.41-.28.88-.19,1.61-.54,2.18-1.04.57-.5,1.04-1.25,1.42-2.22s.82-2.22,1.33-3.74c2.71-9.21,5.46-18.41,8.24-27.6,2.78-9.18,5.55-18.38,8.33-27.6h3.22l20.16,62.48h4.17v1.61h-22.63v-1.61h6.34l-6.06-19.03h-16.47l-.66,1.89c-.32.95-.7,2.15-1.14,3.6-.44,1.45-.87,2.9-1.28,4.36-.41,1.45-.77,2.78-1.09,3.98-.32,1.2-.47,2.02-.47,2.46,0,.76.3,1.33.9,1.7.6.38,1.31.65,2.13.8.82.16,1.66.24,2.51.24h2.22v1.61h-16.76v-1.61Zm14.11-20.64h15.53l-7.95-24.8-7.57,24.8Z"/>
    <path class="cls-1" d="m710.64,367.5c1.89,0,3.38-.05,4.45-.14,1.07-.09,1.85-.41,2.32-.95.47-.54.76-1.36.85-2.46.09-1.1.14-2.7.14-4.78v-50.36l-1.23-1.23h-6.53v-1.61h19.03l27.45,45.06v-35.6c0-2.02-.05-3.56-.14-4.64-.09-1.07-.33-1.85-.71-2.32-.38-.47-.93-.74-1.66-.8-.73-.06-1.72-.09-2.98-.09h-2.08v-1.61h17.13v1.61h-2.18c-1.26,0-2.27.03-3.03.09-.76.06-1.33.33-1.7.8-.38.47-.62,1.25-.71,2.32-.09,1.07-.14,2.62-.14,4.64v54.15h-4.73l-33.99-56.23v44.21c0,2.53.03,4.47.09,5.82.06,1.36.33,2.34.8,2.93.47.6,1.25.95,2.32,1.04,1.07.09,2.62.14,4.64.14v1.61h-17.42v-1.61Z"/>
    <path class="cls-1" d="m786.38,367.5c1.39,0,2.52-.09,3.41-.28.88-.19,1.61-.54,2.18-1.04.57-.5,1.04-1.25,1.42-2.22s.82-2.22,1.33-3.74c2.71-9.21,5.46-18.41,8.24-27.6,2.78-9.18,5.55-18.38,8.33-27.6h3.22l20.16,62.48h4.17v1.61h-22.63v-1.61h6.34l-6.06-19.03h-16.47l-.66,1.89c-.32.95-.7,2.15-1.14,3.6-.44,1.45-.87,2.9-1.28,4.36-.41,1.45-.77,2.78-1.09,3.98-.32,1.2-.47,2.02-.47,2.46,0,.76.3,1.33.9,1.7.6.38,1.31.65,2.13.8.82.16,1.66.24,2.51.24h2.22v1.61h-16.76v-1.61Zm14.11-20.64h15.53l-7.95-24.8-7.57,24.8Z"/>
  </g>
</svg>